PathFileType	4	(X/Y/Z)	/Users/niels/Desktop/University/Third Semester/Perception and Action/Exam/Gymnastics Motion Tracking/Code for Gym Tracking/Analyzed Data/Webcam_Backflip/id2002_1_baseline_Sports2D/id2002_1_baseline_Sports2D_px_person00.trc
DataRate	CameraRate	NumFrames	NumMarkers	Units	OrigDataRate	OrigDataStartFrame	OrigNumFrames
29.759999999999998	29.759999999999998	16	22	m	29.759999999999998	20	125
Frame#	Time	Hip			RHip			RKnee			RAnkle			RBigToe			RSmallToe			RHeel			LHip			LKnee			LAnkle			LBigToe			LSmallToe			LHeel			Neck			Head			Nose			RShoulder			RElbow			RWrist			LShoulder			LElbow			LWrist		
		X1	Y1	Z1	X2	Y2	Z2	X3	Y3	Z3	X4	Y4	Z4	X5	Y5	Z5	X6	Y6	Z6	X7	Y7	Z7	X8	Y8	Z8	X9	Y9	Z9	X10	Y10	Z10	X11	Y11	Z11	X12	Y12	Z12	X13	Y13	Z13	X14	Y14	Z14	X15	Y15	Z15	X16	Y16	Z16	X17	Y17	Z17	X18	Y18	Z18	X19	Y19	Z19	X20	Y20	Z20	X21	Y21	Z21	X22	Y22	Z22
20	0.6720430107526882	1.0735022389781121	-0.9703204597639534	0.0	1.1932028813508446	-0.9997587265408617	0.0	1.2569932521176703	-1.0564147947304374	0.0			0.0			0.0			0.0			0.0	0.9528493061622666	-0.9931217948751726	0.0	0.9405747875911771	-1.0708834726414393	0.0			0.0			0.0			0.0			0.0	1.1598986703419076	-0.36310042900850203	0.0	1.2794258244460448	-0.2498123941716671	0.0	1.2737372016957587	-0.4088854427547761	0.0	1.2699888074562173	-0.41501726707153197	0.0	1.3510645836688797	-0.684607073956305	0.0	1.3408973524330914	-0.8870183783584749	0.0	0.9557746044308155	-0.44284639585512736	0.0	0.8644514957522721	-0.709560590569997	0.0	0.8948164700469887	-0.9199349281414346	0.0
21	0.7056451612903227	1.0784752412307368	-0.9645559902738812	0.0	1.1928721610329567	-0.9888054678819073	0.0	1.2569691589143253	-1.0564103328702943	0.0			0.0			0.0			0.0			0.0	0.9596702428605796	-0.9829778268846847	0.0	0.9402855551202394	-1.0710189329701405	0.0			0.0			0.0			0.0			0.0	1.1641989340949523	-0.3768271291092404	0.0	1.292126187469588	-0.2570773536423735	0.0	1.2747690333074786	-0.40872566779329	0.0	1.2783544755390102	-0.42557881707539513	0.0	1.359756039185868	-0.694907691628014	0.0	1.3476165676952863	-0.8952763211261152	0.0	0.9628835820763916	-0.44590566706293244	0.0	0.8689611454927927	-0.7028678226586902	0.0	0.879970525074606	-0.9254311302889895	0.0
22	0.7392473118279571	1.0815853794140837	-0.9582920605636304	0.0	1.1902261655597794	-0.9756682265195115	0.0	1.257000935221482	-1.0564094822071728	0.0			0.0			0.0			0.0			0.0	0.9660148997317431	-0.9710232581353287	0.0	0.9398361328967586	-1.0710809765560452	0.0			0.0			0.0			0.0			0.0	1.1664003788944821	-0.39110285925295163	0.0	1.3050180186850309	-0.2634067265488305	0.0	1.2742018120481573	-0.40596412745301214	0.0	1.284673905027312	-0.43395932532557996	0.0	1.366772638136038	-0.7025286781594312	0.0	1.3543791520737503	-0.9010588110170511	0.0	0.9693142350342349	-0.44889941480332646	0.0	0.8723407251980932	-0.6975405175829367	0.0	0.8680550319155445	-0.9270506436406593	0.0
23	0.7728494623655915	1.0829136078280057	-0.9528230683732074	0.0	1.186486491410012	-0.9630199968630221	0.0	1.2571449262346457	-1.0564077228052	0.0			0.0			0.0			0.0			0.0	0.9713236961069864	-0.9597352876895207	0.0	0.9392924131802067	-1.0709246164062733	0.0			0.0			0.0			0.0			0.0	1.1675724561065892	-0.4037689736895988	0.0	1.3159212049300528	-0.26900569009437075	0.0	1.2732116849932926	-0.40282048277919286	0.0	1.2891153363199068	-0.44034182834369223	0.0	1.3717459151585023	-0.7076158822909395	0.0	1.3608176177434697	-0.9037836345984905	0.0	0.9750674580027962	-0.451882871353635	0.0	0.8750255133734336	-0.6941380500685637	0.0	0.8589667927185868	-0.9257300375833852	0.0
24	0.806451612903226	1.0828460390469121	-0.9487748846813626	0.0	1.1828993604863074	-0.9533657250943556	0.0	1.2574850062237384	-1.0563985377990606	0.0			0.0			0.0			0.0			0.0	0.9751680289913017	-0.9513858712607177	0.0	0.9388756541071365	-1.070341381773514	0.0			0.0			0.0			0.0			0.0	1.1687877120982113	-0.41273105768269913	0.0	1.3231519750285048	-0.27427010457061063	0.0	1.2730050682805134	-0.4017796481725092	0.0	1.2915848268566958	-0.44490852380971224	0.0	1.3742594466182176	-0.7104829391487796	0.0	1.366572156245227	-0.9031203160799074	0.0	0.9801114496230107	-0.4550358029917252	0.0	0.877712054804834	-0.6928808437170924	0.0	0.8525685859238054	-0.923091203062491	0.0
25	0.8400537634408604	1.0819570614252338	-0.9463010952940041	0.0	1.180278059984868	-0.9484128526530794	0.0	1.2580997874639968	-1.0563742983603868	0.0			0.0			0.0			0.0			0.0	0.9774568238727613	-0.9474910835969639	0.0	0.939038861376892	-1.0691052778770378	0.0			0.0			0.0			0.0			0.0	1.1705897772651583	-0.4169422927657728	0.0	1.3261367234188737	-0.27965246885555445	0.0	1.274220476887885	-0.4044376877628293	0.0	1.291721530030276	-0.4478838713627161	0.0	1.3740387152323406	-0.7116617494224716	0.0	1.3712876242268603	-0.8993235047274274	0.0	0.9843185249402441	-0.4586912929965455	0.0	0.8810221125444001	-0.6937071163551407	0.0	0.8487435247361912	-0.9206421111152548	0.0
26	0.8736559139784947	1.080739307331612	-0.9454652023961926	0.0	1.1788263182815328	-0.949049257023218	0.0	1.2589957101052436	-1.0563285563301243	0.0			0.0			0.0			0.0			0.0	0.9784139513257298	-0.9488265213321898	0.0	0.9405003426382434	-1.0670955763064711	0.0			0.0			0.0			0.0			0.0	1.1730138838240909	-0.41665706104240224	0.0	1.3251572060760564	-0.2853530592973453	0.0	1.2769127923694563	-0.4107593998123246	0.0	1.2891064971203279	-0.4496432915508667	0.0	1.370922771625843	-0.7117801155059927	0.0	1.374630884654824	-0.8931990451411987	0.0	0.9875421938627336	-0.4632085062431153	0.0	0.8852280189068819	-0.6963817399157284	0.0	0.8475275241078162	-0.9194223553401973	0.0
27	0.9072580645161291	1.079486373377781	-0.9462608170412105	0.0	1.1781659042989228	-0.9551198079553777	0.0	1.259998048864339	-1.0562608877999493	0.0			0.0			0.0			0.0			0.0	0.9785703091034736	-0.955155275561607	0.0	0.9441306556672241	-1.0644643452244618	0.0			0.0			0.0			0.0			0.0	1.175722517288371	-0.4133806455028889	0.0	1.321036249016236	-0.2911841116235158	0.0	1.2807891936298526	-0.41923964358524074	0.0	1.2835089432798172	-0.4507989793352451	0.0	1.3647571602532693	-0.7113461454696975	0.0	1.376339368661866	-0.8857405272622619	0.0	0.989718473964165	-0.4688716831636333	0.0	0.8902492046738072	-0.7005928674191837	0.0	0.8490408238410133	-0.920015747036248	0.0
28	0.9408602150537636	1.078347261881593	-0.9483823970738152	0.0	1.1774228483841491	-0.9649779162540433	0.0	1.2606083119876847	-1.0561849977499678	0.0			0.0			0.0			0.0			0.0	0.9786886494750817	-0.964827403467802	0.0	0.9505134576523756	-1.0616718773019398	0.0			0.0			0.0			0.0			0.0	1.1780156761067715	-0.40966757168768714	0.0	1.315060070345081	-0.2967566394467284	0.0	1.2853020284730388	-0.4278294498150348	0.0	1.2750027189377566	-0.45213167446573316	0.0	1.3553429005842412	-0.7106601061467763	0.0	1.3762377171768	-0.8778392839182168	0.0	0.9909960705188294	-0.4757897559719764	0.0	0.8958913462489103	-0.7060394650965856	0.0	0.8533471114384839	-0.9227128164108201	0.0
29	0.974462365591398	1.077322217114414	-0.9511454763559718	0.0	1.1754329272919657	-0.9758051099514969	0.0	1.2598714226275123	-1.0561394458209796	0.0			0.0			0.0			0.0			0.0	0.9795046467579218	-0.975165674116935	0.0	0.9593602399042985	-1.0592764996577588	0.0			0.0			0.0			0.0			0.0	1.1790809227296966	-0.4082041523672291	0.0	1.308548463153617	-0.3017847025014467	0.0	1.2896823975972942	-0.43494049245910726	0.0	1.2639301530865987	-0.45432270707320144	0.0	1.3424634592352906	-0.7098897969681328	0.0	1.3741971774328554	-0.870216241931029	0.0	0.9919580172713799	-0.48372262590767706	0.0	0.9021079468059064	-0.7124273452245395	0.0	0.860549205593068	-0.9277070973766228	0.0
30	1.0080645161290325	1.0762739197741775	-0.953639774375579	0.0	1.1711162286873222	-0.9847405060594894	0.0	1.256352310956441	-1.0561976303323302	0.0			0.0			0.0			0.0			0.0	0.9815840477768987	-0.9835346255277498	0.0	0.9695534246552607	-1.057658840409399	0.0			0.0			0.0			0.0			0.0	1.17850579001079	-0.41052769934510747	0.0	1.3022230799912236	-0.30629260687993687	0.0	1.2930336358776156	-0.43988196449820766	0.0	1.2507593883853658	-0.45769161681003917	0.0	1.3259530859508353	-0.7091562423102075	0.0	1.3700906771435992	-0.863406740397598	0.0	0.9938255721994709	-0.4919640349111482	0.0	0.9092083726789058	-0.7193629421040484	0.0	0.8711101559685233	-0.9350582302057083	0.0
31	1.0416666666666667	1.0749333670822177	-0.9550240683512444	0.0	1.1636903835690193	-0.989613034295425	0.0	1.2483924225410001	-1.0564693495934883	0.0			0.0			0.0			0.0			0.0	0.9852843301165243	-0.9880311448136816	0.0	0.9799253082879895	-1.056905798885207	0.0			0.0			0.0			0.0			0.0	1.176438498576116	-0.4167024284474322	0.0	1.2963281708081398	-0.31064302814040684	0.0	1.2944334345247286	-0.44268655250421324	0.0	1.2359465685789421	-0.46220542050604924	0.0	1.3057543396477345	-0.7085037213560772	0.0	1.3637867445380512	-0.8577320256756206	0.0	0.9983304376363039	-0.49951799467926783	0.0	0.9179947486179304	-0.7262718422436384	0.0	0.8861437165280739	-0.9442404117767326	0.0
32	1.0752688172043012	1.0728194865361937	-0.9549273315628738	0.0	1.1526590855544445	-0.9892598848839037	0.0	1.234876618469118	-1.057080857993744	0.0			0.0			0.0			0.0			0.0	0.9905229672407289	-0.9877357920210156	0.0	0.9898038071777133	-1.0568659067475072	0.0			0.0			0.0			0.0			0.0	1.1732673871302803	-0.42599884706181723	0.0	1.2912071512839873	-0.3153601999153606	0.0	1.2931002279155392	-0.44377798198215634	0.0	1.219922074354162	-0.46767290429963265	0.0	1.2819847579714874	-0.7077718876287747	0.0	1.3551351638874887	-0.8533163342215281	0.0	1.0070751561292377	-0.5055493436010644	0.0	0.929692757300849	-0.7323380410374223	0.0	0.9074977968518517	-0.9535841735908815	0.0
33	1.1088709677419357	1.0695009271787244	-0.9535656960394987	0.0	1.1380664948204489	-0.9839126226337163	0.0	1.2162755183405527	-1.0581112658000398	0.0			0.0			0.0			0.0			0.0	0.9968296615486965	-0.9828613364835673	0.0	0.998929451044126	-1.0572814922708036	0.0			0.0			0.0			0.0			0.0	1.1692828127068267	-0.4375176004261237	0.0	1.2872892622798082	-0.32082970430477803	0.0	1.2886887713867223	-0.4437908745454126	0.0	1.2031795511044474	-0.4738790982638061	0.0	1.255054863730351	-0.7065892130488408	0.0	1.3439845720869759	-0.8501396466378681	0.0	1.0206736498900075	-0.5097381147621669	0.0	0.9455494131765809	-0.7365309295861765	0.0	0.9374285432536885	-0.9600575484296876	0.0
34	1.14247311827957	1.065114287627774	-0.9513942816190205	0.0	1.1209604473774155	-0.9751047611931717	0.0	1.1948713215048103	-1.0594990950071992	0.0			0.0			0.0			0.0			0.0	1.0038899538379318	-0.9746083473719026	0.0	1.0072062015612773	-1.0579100498328065	0.0			0.0			0.0			0.0			0.0	1.1646088061511257	-0.4502727181534314	0.0	1.2845427153345692	-0.3270959115974543	0.0	1.281512337643805	-0.4434751216746042	0.0	1.1862905390669671	-0.48060192389029893	0.0	1.2257538558223626	-0.7046015021995675	0.0	1.3303009368173897	-0.8480875047221301	0.0	1.0382342062086163	-0.5123065497671657	0.0	0.9660085031379325	-0.7381094208163314	0.0	0.9773469182542536	-0.960010019975293	0.0
35	1.1760752688172045	1.0603328966921606	-0.948907331086189	0.0	1.1033459851799707	-0.9651579613134282	0.0	1.1736928566668716	-1.0610365081447835	0.0			0.0			0.0			0.0			0.0	1.0117563772398863	-0.9650033993127815	0.0	1.014572931649353	-1.0585892274185855	0.0			0.0			0.0			0.0			0.0	1.159383668960729	-0.463013883643174	0.0	1.2821546313576604	-0.3338830452510693	0.0	1.2724631176553665	-0.44353079524531885	0.0	1.1697842678187511	-0.48751724908590205	0.0	1.1951598328700803	-0.7016927647968622	0.0	1.3142370754488277	-0.846985723921617	0.0	1.0575533210607992	-0.5138842967060148	0.0	0.9896738822304091	-0.737469586184315	0.0	1.0256440117585117	-0.9514786874335953	0.0
